# xmcd
#
# Track frame offsets: 
#        150
#        13670
#        19665
#        30076
#        41544
#        47893
#        53690
#        74811
#        85784
#        118216
#        136555
#
# Disc length: 2318 seconds
#
# Revision: 2
# Processed by: cddbd v1.5.2PL0 Copyright (c) Steve Scherf et al.
# Submitted via: ExactAudioCopy v1.3
#
DISCID=87090c0b
DTITLE=Soft Machine - The Harvest Albums 1975-1978 [CD THREE (Alive an
DTITLE=d Well Recorded in Paris) (EU-UK ECLEC 32682))
DYEAR=2019
DGENRE=Fusion
TTITLE0=White Kite
TTITLE1=Eos
TTITLE2=Ods Bullets And Blades Part One
TTITLE3=Ods Bullets And Blades Part Two
TTITLE4=Song of the Sunbird
TTITLE5=Puffin'
TTITLE6=Huffin'
TTITLE7=Number Three
TTITLE8=The Nodder
TTITLE9=Surrounding Silence
TTITLE10=Soft Space
EXTD=YEAR: 1976
EXTT0=
EXTT1=
EXTT2=
EXTT3=
EXTT4=
EXTT5=
EXTT6=
EXTT7=
EXTT8=
EXTT9=
EXTT10=
PLAYORDER=
